<svg version="1.1" xmlns="http://www.w3.org/2000/svg" xmlns:xlink="http://www.w3.org/1999/xlink" width="103.08px" height="122.88px" viewBox="0,0,214.75,256"><g fill="#ffffff" fill-rule="evenodd" stroke="none" stroke-width="1" stroke-linecap="butt" stroke-linejoin="miter" stroke-miterlimit="10" stroke-dasharray="" stroke-dashoffset="0" font-family="none" font-weight="none" font-size="none" text-anchor="none" style="mix-blend-mode: normal"><g transform="translate(0,-0.06994) scale(2.08333,2.08333)"><path d="M49.35,35.5c0,-0.92232 0.74768,-1.67 1.67,-1.67c0.92232,0 1.67,0.74768 1.67,1.67v6.5h4.79c0.87499,0.06766 1.55048,0.7974 1.55048,1.675c0,0.8776 -0.67549,1.60734 -1.55048,1.675h-6.48c-0.92232,0 -1.67,-0.74768 -1.67,-1.67v-8.18zM53.43,3v16.74l26.12,15c2.44,1.58 2.14,0.89 2.14,3.76v14.15h15c3.50905,0.0108 6.35717,2.84109 6.39,6.35v63.85h-35.39v-42.48c0,-8.34 -4.19,-13.72 -9.56,-16.1c-4.19744,-1.8554 -8.98256,-1.8554 -13.18,0c-5.37,2.38 -9.56,7.75 -9.56,16.1v42.51h-35.39v-63.88c0.011,-3.52291 2.86708,-6.37451 6.39,-6.38h15v-14.25c0,-2.82 -0.18,-2.12 2.28,-3.66l26.88,-15v-16.71c-0.25124,-0.32847 -0.39448,-0.72675 -0.41,-1.14c0.00318,-0.80412 0.52816,-1.51303 1.29639,-1.75059c0.76823,-0.23756 1.60174,0.05125 2.05828,0.7132c0.45654,0.66195 0.43035,1.5437 -0.06467,2.17739zM54.82,3.71c9.65,-6.71 10.37,6.49 19.84,-1.71v13.4c-9,8.12 -11,-5 -19.84,1.67v-13.4zM55.74,52.36c5.01615,-1.9973 7.93838,-7.24441 6.99525,-12.56056c-0.94313,-5.31615 -5.49196,-9.23784 -10.88905,-9.38775c-5.39708,-0.14992 -10.15661,3.5132 -11.3934,8.7688c-1.23679,5.2556 1.38965,10.65684 6.28719,12.92952c2.83835,1.31582 6.09298,1.40623 9,0.25zM63.41,122.92h-23.74v-42.55c0,-6.4 3.07,-10.46 7,-12.21c3.10637,-1.3498 6.63363,-1.3498 9.74,0c3.93,1.75 7,5.81 7,12.21v42.51zM75.41,107.81h7.08v6.19h-7.09v-6.24zM86.88,88.19h7.12v-6.19h-7.12v6.24zM86.88,75.28h7.12v-6.28h-7.12v6.24zM75.4,88.19h7.08v-6.19h-7.08v6.24zM75.4,75.28h7.08v-6.28h-7.08v6.24zM86.88,94.86h7.12v6.24h-7.12zM86.88,107.77h7.12v6.23h-7.12v-6.24zM75.4,94.86h7.08v6.24h-7.08zM9.13,107.77h7.07v6.23h-7.07v-6.24zM20.6,88.19h7.08v-6.19h-7.08v6.24zM20.6,75.28h7.08v-6.28h-7.08v6.24zM9.13,88.19h7.07v-6.19h-7.07v6.24zM9.13,75.28h7.07v-6.28h-7.07v6.24zM20.6,94.86h7.08v6.24h-7.08zM20.6,107.77h7.08v6.23h-7.08v-6.24zM9.13,94.86h7.07v6.24h-7.07z"></path></g></g></svg>