<svg version="1.1" xmlns="http://www.w3.org/2000/svg" xmlns:xlink="http://www.w3.org/1999/xlink" width="102.34px" height="122.88px" viewBox="0,0,213.20313,256"><g fill="#ffffff" fill-rule="evenodd" stroke="none" stroke-width="1" stroke-linecap="butt" stroke-linejoin="miter" stroke-miterlimit="10" stroke-dasharray="" stroke-dashoffset="0" font-family="none" font-weight="none" font-size="none" text-anchor="none" style="mix-blend-mode: normal"><g transform="translate(-0.0026,0) scale(2.08333,2.08333)"><g><path d="M53.36,3.31c8.7,-6.01 9.35,5.89 17.89,-1.55v12.14c-8.14,7.33 -9.9,-4.51 -17.89,1.5v-12.09v0zM49.45,37.01h1.52c0.28,0 0.5,0.23 0.5,0.5v5.84h5.33c0.28,0 0.5,0.23 0.5,0.5v1.52c0,0.28 -0.23,0.5 -0.5,0.5h-7.86v-8.37c0,-0.26 0.23,-0.49 0.51,-0.49v0zM51.17,30.17c6.85,0 12.4,5.55 12.4,12.4c0,6.85 -5.55,12.4 -12.4,12.4c-6.85,0 -12.4,-5.55 -12.4,-12.4c0,-6.84 5.55,-12.4 12.4,-12.4v0zM52.87,71.74v40.27h12.25v-40.27h-12.25zM49.47,112.01v-40.27h-12.25v0v40.27h12.25zM102.34,122.85v-70.99h-26.96v-17.19l-23.25,-14.98v-16.6h-0.08c0.49,-0.28 0.81,-0.82 0.81,-1.43c0,-0.92 -0.74,-1.66 -1.66,-1.66c-0.92,0 -1.66,0.74 -1.66,1.66c0,0.61 0.33,1.14 0.81,1.43h-0.08v16.57l-23.3,15.01v17.19h-19.74h-7.23v71.02c34.12,0 68.22,-0.03 102.34,-0.03v0zM10.99,71.74h13.49v5.25h-13.49v-5.25v0zM77.85,71.74h13.49v5.25h-13.49v-5.25v0zM10.99,83.33h13.49v5.25h-13.49v-5.25v0zM77.85,83.33h13.49v5.25h-13.49v-5.25v0zM10.99,94.92h13.49v5.25h-13.49v-5.25v0zM77.85,94.92h13.49v5.25h-13.49v-5.25v0zM10.99,106.51h13.49v5.25h-13.49v-5.25v0zM77.85,106.51h13.49v5.25h-13.49v-5.25v0z"></path></g></g></g></svg>