<svg version="1.1" xmlns="http://www.w3.org/2000/svg" xmlns:xlink="http://www.w3.org/1999/xlink" width="71.31px" height="122.88px" viewBox="0,0,148.5625,256"><g fill="#ffffff" fill-rule="nonzero" stroke="none" stroke-width="1" stroke-linecap="butt" stroke-linejoin="miter" stroke-miterlimit="10" stroke-dasharray="" stroke-dashoffset="0" font-family="none" font-weight="none" font-size="none" text-anchor="none" style="mix-blend-mode: normal"><g transform="translate(0.01042,0) scale(2.08333,2.08333)"><g><path d="M12.47,0h46.36c3.43,0 6.55,1.4 8.81,3.66c2.26,2.26 3.66,5.38 3.66,8.81v97.94c0,3.43 -1.4,6.55 -3.66,8.81c-2.26,2.26 -5.38,3.66 -8.81,3.66h-46.36c-3.43,0 -6.55,-1.4 -8.81,-3.66c-2.26,-2.26 -3.66,-5.38 -3.66,-8.81v-97.94c0,-3.43 1.4,-6.55 3.66,-8.81c2.26,-2.26 5.38,-3.66 8.81,-3.66zM28.93,113c-0.83,0 -1.5,-0.67 -1.5,-1.5c0,-0.83 0.67,-1.5 1.5,-1.5h13.72c0.83,0 1.5,0.67 1.5,1.5c0,0.83 -0.67,1.5 -1.5,1.5h-13.72zM27.65,7.16c1.31,0 2.38,1.07 2.38,2.38c0,1.31 -1.07,2.38 -2.38,2.38c-1.31,0 -2.38,-1.07 -2.38,-2.38c0,-1.31 1.07,-2.38 2.38,-2.38zM35.65,7.16c1.31,0 2.38,1.07 2.38,2.38c0,1.31 -1.07,2.38 -2.38,2.38c-1.32,0 -2.38,-1.07 -2.38,-2.38c0,-1.31 1.07,-2.38 2.38,-2.38zM43.65,7.16c1.31,0 2.38,1.07 2.38,2.38c0,1.31 -1.07,2.38 -2.38,2.38c-1.32,0 -2.38,-1.07 -2.38,-2.38c0,-1.31 1.07,-2.38 2.38,-2.38zM3,99.29h65.31v-80.08h-65.31v80.08zM68.31,102.29h-65.31v8.12c0,2.6 1.07,4.97 2.78,6.69c1.72,1.72 4.09,2.78 6.69,2.78h46.36c2.6,0 4.97,-1.07 6.69,-2.78c1.72,-1.72 2.78,-4.09 2.78,-6.69v-8.12zM3,16.21h65.31v-3.74c0,-2.6 -1.07,-4.97 -2.78,-6.69c-1.72,-1.72 -4.09,-2.78 -6.7,-2.78h-46.36c-2.6,0 -4.97,1.06 -6.69,2.78c-1.72,1.72 -2.78,4.09 -2.78,6.69v3.74z"></path></g></g></g></svg>